# xmcd CD database file
#
# Track frame offsets:
#	150
#	15863
#	34913
#	50518
#
# Disc length: 925 seconds
#
# Revision: 1
# Processed by: cddbd v1.5.2PL0 Copyright (c) Steve Scherf et al.
# Submitted via: CD2WAV32(JP) R3.22
#
DISCID=25039b04
DTITLE=井上みゆ - Top of The World | me;da
DYEAR=2006
DGENRE=JPop
TTITLE0=Top of The World
TTITLE1=me;da
TTITLE2=Top of The World off Vocal Ver.
TTITLE3=me;da off Vocal Ver.
EXTD=
EXTT0=詞曲:折倉俊則(I.L.C)
EXTT1=詞曲:折倉俊則(I.L.C)
EXTT2=曲:折倉俊則(I.L.C)
EXTT3=曲:折倉俊則(I.L.C)
PLAYORDER=
